# xmcd
#
# Track frame offsets:
#	150
#	16966
#	36030
#	56529
#	77763
#	91674
#	111970
#	132096
#	149794
#
# Disc length: 2247 seconds
#
# Revision: 0
# Processed by: cddbd v1.5.2PL0 Copyright (c) Steve Scherf et al.
# Submitted via: dBpowerAMP V4.0
#
DISCID=7108c509
DTITLE=FELIX PAPPALARDI - Don't Worry,Ma
DYEAR=2003
DGENRE=Blues
TTITLE0=Bring It With You When You Come
TTITLE1=As The Years Go Passing By
TTITLE2=Rail Road Angels
TTITLE3=High Heel Sneakers
TTITLE4=The Water Is Wide
TTITLE5=Sunshine Of Your Love
TTITLE6=Caucht A Fever
TTITLE7=White Boy Blues
TTITLE8=Farmer's Blues
EXTD=
EXTT0=
EXTT1=
EXTT2=
EXTT3=
EXTT4=
EXTT5=
EXTT6=
EXTT7=
EXTT8=
PLAYORDER=
